<mxfile host="65bd71144e">
    <diagram id="ike-L-DOn-Jjt9-5VHIu" name="Page-1">
        <mxGraphModel dx="519" dy="607" grid="1" gridSize="10" guides="1" tooltips="1" connect="1" arrows="1" fold="1" page="1" pageScale="1" pageWidth="827" pageHeight="1169" math="0" shadow="0">
            <root>
                <mxCell id="0"/>
                <mxCell id="1" parent="0"/>
                <mxCell id="30" value="part of cleanupData" style="shape=umlFrame;whiteSpace=wrap;html=1;width=130;height=30;boundedLbl=1;verticalAlign=middle;align=left;spacingLeft=5;labelBackgroundColor=default;" parent="1" vertex="1">
                    <mxGeometry x="170" y="95" width="480" height="490" as="geometry"/>
                </mxCell>
                <mxCell id="9" style="edgeStyle=none;html=1;entryX=0.5;entryY=0;entryDx=0;entryDy=0;" parent="1" source="3" target="7" edge="1">
                    <mxGeometry relative="1" as="geometry"/>
                </mxCell>
                <mxCell id="15" style="edgeStyle=none;html=1;entryX=0;entryY=0.5;entryDx=0;entryDy=0;" parent="1" source="3" target="19" edge="1">
                    <mxGeometry relative="1" as="geometry">
                        <mxPoint x="540" y="260" as="targetPoint"/>
                    </mxGeometry>
                </mxCell>
                <mxCell id="3" value="bloodArray.half&#10;.includes&#10;(student.lastName)" style="rhombus;labelBackgroundColor=default;" parent="1" vertex="1">
                    <mxGeometry x="355" y="200" width="110" height="110" as="geometry"/>
                </mxCell>
                <mxCell id="4" value="" style="endArrow=classic;html=1;entryX=0.5;entryY=0;entryDx=0;entryDy=0;exitX=0.5;exitY=1;exitDx=0;exitDy=0;" parent="1" source="5" target="3" edge="1">
                    <mxGeometry width="50" height="50" relative="1" as="geometry">
                        <mxPoint x="414" y="40" as="sourcePoint"/>
                        <mxPoint x="420" y="190" as="targetPoint"/>
                    </mxGeometry>
                </mxCell>
                <mxCell id="6" value="student.lastName" style="edgeLabel;html=1;align=center;verticalAlign=middle;resizable=0;points=[];" parent="4" vertex="1" connectable="0">
                    <mxGeometry x="0.3228" y="2" relative="1" as="geometry">
                        <mxPoint as="offset"/>
                    </mxGeometry>
                </mxCell>
                <mxCell id="5" value="cleanupData" style="rounded=1;whiteSpace=wrap;html=1;" parent="1" vertex="1">
                    <mxGeometry x="350" y="10" width="120" height="30" as="geometry"/>
                </mxCell>
                <mxCell id="16" style="edgeStyle=none;html=1;entryX=0;entryY=0.5;entryDx=0;entryDy=0;" parent="1" source="7" target="20" edge="1">
                    <mxGeometry relative="1" as="geometry">
                        <mxPoint x="540" y="410" as="targetPoint"/>
                    </mxGeometry>
                </mxCell>
                <mxCell id="17" style="edgeStyle=none;html=1;exitX=0.5;exitY=1;exitDx=0;exitDy=0;entryX=0.5;entryY=0;entryDx=0;entryDy=0;" parent="1" source="7" target="22" edge="1">
                    <mxGeometry relative="1" as="geometry">
                        <mxPoint x="430" y="510" as="targetPoint"/>
                    </mxGeometry>
                </mxCell>
                <mxCell id="7" value="bloodArray.pure&#10;.includes&#10;(student.lastName)" style="rhombus;labelBackgroundColor=default;" parent="1" vertex="1">
                    <mxGeometry x="355" y="340" width="110" height="110" as="geometry"/>
                </mxCell>
                <mxCell id="19" value="student.bloodStatus =&lt;br&gt;half-blood" style="rounded=1;whiteSpace=wrap;html=1;labelBackgroundColor=default;" parent="1" vertex="1">
                    <mxGeometry x="510" y="225" width="120" height="60" as="geometry"/>
                </mxCell>
                <mxCell id="20" value="student.bloodStatus =&lt;br&gt;pure-blood" style="rounded=1;whiteSpace=wrap;html=1;labelBackgroundColor=default;" parent="1" vertex="1">
                    <mxGeometry x="510" y="365" width="120" height="60" as="geometry"/>
                </mxCell>
                <mxCell id="22" value="student.bloodStatus =&lt;br&gt;muggle" style="rounded=1;whiteSpace=wrap;html=1;labelBackgroundColor=default;" parent="1" vertex="1">
                    <mxGeometry x="350" y="490" width="120" height="60" as="geometry"/>
                </mxCell>
                <mxCell id="24" value="check if last name exists in half-blood array of last names" style="shape=note2;boundedLbl=1;whiteSpace=wrap;html=1;size=25;verticalAlign=top;align=center;labelBackgroundColor=default;" parent="1" vertex="1">
                    <mxGeometry x="210" y="205" width="120" height="100" as="geometry"/>
                </mxCell>
                <mxCell id="25" value="check if last name exists in pure-blood array of last names" style="shape=note2;boundedLbl=1;whiteSpace=wrap;html=1;size=25;verticalAlign=top;align=center;labelBackgroundColor=default;" parent="1" vertex="1">
                    <mxGeometry x="210" y="345" width="120" height="100" as="geometry"/>
                </mxCell>
                <mxCell id="26" value="[true]" style="text;html=1;align=center;verticalAlign=middle;resizable=0;points=[];autosize=1;strokeColor=none;fillColor=none;" parent="1" vertex="1">
                    <mxGeometry x="465" y="230" width="40" height="20" as="geometry"/>
                </mxCell>
                <mxCell id="27" value="[true]" style="text;html=1;align=center;verticalAlign=middle;resizable=0;points=[];autosize=1;strokeColor=none;fillColor=none;" parent="1" vertex="1">
                    <mxGeometry x="465" y="370" width="40" height="20" as="geometry"/>
                </mxCell>
                <mxCell id="28" value="[else]" style="text;html=1;align=center;verticalAlign=middle;resizable=0;points=[];autosize=1;strokeColor=none;fillColor=none;" parent="1" vertex="1">
                    <mxGeometry x="414" y="310" width="40" height="20" as="geometry"/>
                </mxCell>
                <mxCell id="29" value="[else]" style="text;html=1;align=center;verticalAlign=middle;resizable=0;points=[];autosize=1;strokeColor=none;fillColor=none;" parent="1" vertex="1">
                    <mxGeometry x="414" y="450" width="40" height="20" as="geometry"/>
                </mxCell>
            </root>
        </mxGraphModel>
    </diagram>
</mxfile>